#!OML:ASF \\Waltz\H\Terrain\Patient Classification 1\Animal2\Wednesday\Animal2.ASF
:FULLY-SPECIFIED
:DEGREES
621
root 5.13836 17.922 -1.16105 -177.871 -21.101 179.347
lowerback 6.07105 0.839191 2.62607
upperback -6.04257 0.44304 -6.12668
thorax -9.82851 -0.428331 -8.17346
lowerneck 13.1265 13.3207 13.6466
upperneck -6.77944 16.592 -32.4717
head 0.0407087 9.02533 -12.9929
rclavicle -3.37934e-015 3.18055e-015
rhumerus 44.2881 30.065 -22.7894
rradius 53.687
rwrist -28.4681
rhand -8.56297 21.7074
rfingers 7.12502
rthumb 17.3671 -7.53675
lclavicle -3.37934e-015 3.18055e-015
lhumerus 17.7347 17.2799 7.62111
lradius 50.4203
lwrist 11.7412
lhand -50.0378 14.7655
lfingers 7.12502
lthumb -22.6254 43.4595
rfemur -13.4435 19.4897 9.44097
rtibia 28.1333
rfoot -4.9349 24.5587
rtoes 45.1642
lfemur -14.6998 -14.294 -8.30176
ltibia 21.1231
lfoot -2.27573 -22.0246
ltoes 0.593085
622
root 5.26585 17.9194 -1.18182 -177.968 -22.8052 179.581
lowerback 6.23019 0.916806 2.75272
upperback -5.99134 0.564286 -6.22218
thorax -9.84742 -0.37858 -8.37657
lowerneck 13.2443 13.0258 13.8541
upperneck -6.51325 16.3071 -32.4822
head 0.0406991 8.88625 -13.0673
rclavicle -7.89175e-014 -3.33958e-014
rhumerus 43.7634 29.7247 -22.5703
rradius 53.7583
rwrist -28.4509
rhand -8.9423 21.9628
rfingers 7.12502
rthumb 17.002 -7.31318
lclavicle -7.89175e-014 -3.33958e-014
lhumerus 18.3697 17.0575 8.10104
lradius 50.5369
lwrist 12.0759
lhand -49.8901 13.9128
lfingers 7.12502
lthumb -22.4836 42.624
rfemur -12.6978 18.6181 10.0118
rtibia 27.5434
rfoot -4.62186 25.3838
rtoes 45.6157
lfemur -15.1797 -14.1933 -7.57448
ltibia 20.7134
lfoot -0.271361 -22.811
ltoes 4.2535
623
root 5.38957 17.92 -1.20806 -177.926 -24.3715 179.645
lowerback 6.18617 0.942927 2.77648
upperback -5.90629 0.598232 -6.34147
thorax -9.72142 -0.360848 -8.52346
lowerneck 13.2876 12.8519 13.8658
upperneck -6.32467 16.1218 -32.4782
head 0.0367037 8.79369 -13.0871
rclavicle -3.79679e-014 5.88403e-014
rhumerus 43.6836 29.3981 -22.2438
rradius 53.6933
rwrist -28.5854
rhand -9.20479 22.4483
rfingers 7.12502
rthumb 16.7493 -6.84915
lclavicle -3.79679e-014 5.88403e-014
lhumerus 18.6073 17.0602 8.36811
lradius 50.5938
lwrist 11.9489
lhand -49.2706 12.5676
lfingers 7.12502
lthumb -21.8888 41.3495
rfemur -12.0481 17.7179 10.3804
rtibia 26.8737
rfoot -5.26944 26.1636
rtoes 44.7147
lfemur -15.7084 -14.1323 -7.04396
ltibia 20.3457
lfoot 1.73071 -23.2609
ltoes 9.14381
624
root 5.51346 17.9093 -1.23235 -177.73 -25.9424 179.607
lowerback 6.05776 0.850166 2.68569
upperback -5.79491 0.463044 -6.42348
thorax -9.54496 -0.413274 -8.53296
lowerneck 13.0534 12.9398 13.4309
upperneck -6.1875 16.2249 -32.0941
head 0.0574739 8.82433 -12.8293
rclavicle -4.1546e-014 -1.90833e-014
rhumerus 43.9701 28.989 -22.0753
rradius 53.4809
rwrist -28.5451
rhand -9.27813 22.8041
rfingers 7.12502
rthumb 16.6787 -6.4993
lclavicle -4.1546e-014 -1.90833e-014
lhumerus 18.6217 17.3336 8.51869
lradius 50.4773
lwrist 11.746
lhand -49.0881 12.1856
lfingers 7.12502
lthumb -21.7136 40.9878
rfemur -11.5457 16.5996 10.6814
rtibia 26.2059
rfoot -5.95937 26.7741
rtoes 44.0879
lfemur -16.3631 -13.8172 -6.6391
ltibia 19.9708
lfoot 3.88125 -23.7315
ltoes 14.5525
625
root 5.64132 17.8894 -1.2551 -177.666 -27.4761 179.683
lowerback 6.14154 0.734043 2.63148
upperback -5.71218 0.310534 -6.43773
thorax -9.52955 -0.478251 -8.49613
lowerneck 12.6648 13.0913 13.0083
upperneck -5.88276 16.4511 -31.6835
head 0.179685 8.89167 -12.5339
rclavicle 3.00165e-014 6.04305e-014
rhumerus 44.296 28.5832 -22.0775
rradius 53.2024
rwrist -28.3146
rhand -9.32908 22.8485
rfingers 7.12502
rthumb 16.6296 -6.4591
lclavicle 3.00165e-014 6.04305e-014
lhumerus 18.5662 17.2631 8.46522
lradius 50.5648
lwrist 12.2488
lhand -50.1369 13.4184
lfingers 7.12502
lthumb -22.7205 42.1006
rfemur -11.0419 15.6311 11.1913
rtibia 25.6209
rfoot -6.39934 26.8797
rtoes 44.7337
lfemur -16.925 -13.4609 -6.16622
ltibia 19.6112
lfoot 5.64097 -23.8613
ltoes 18.1586
626
root 5.76308 17.8703 -1.28198 -177.66 -28.9019 179.72
lowerback 6.29125 0.736197 2.61899
upperback -5.72085 0.294917 -6.56651
thorax -9.63329 -0.49756 -8.63816
lowerneck 12.5005 13.0664 13.1094
upperneck -5.42071 16.5582 -31.5334
head 0.354704 8.90811 -12.4547
rclavicle -7.25564e-014 -3.02153e-014
rhumerus 44.299 28.3281 -22.1181
rradius 52.9701
rwrist -28.2898
rhand -9.34394 22.6369
rfingers 7.12502
rthumb 16.6153 -6.67184
lclavicle -7.25564e-014 -3.02153e-014
lhumerus 18.673 16.7583 8.30503
lradius 50.7576
lwrist 12.8275
lhand -50.8789 14.7411
lfingers 7.12502
lthumb -23.4324 43.3344
rfemur -10.5239 14.5559 11.7124
rtibia 25.1625
rfoot -7.20815 26.8804
rtoes 45.623
lfemur -17.3201 -13.1477 -5.82408
ltibia 19.2923
lfoot 5.10715 -23.9472
ltoes 13.1375
627
root 5.87502 17.8484 -1.30761 -177.509 -30.2443 179.689
lowerback 6.37116 0.831714 2.67619
upperback -5.85427 0.38305 -6.79914
thorax -9.81801 -0.490086 -8.95733
lowerneck 12.4217 13.0011 13.4158
upperneck -4.81048 16.6901 -31.334
head 0.576406 8.93501 -12.3938
rclavicle 4.81059e-014 -1.11319e-014
rhumerus 44.0128 28.2489 -22.0574
rradius 52.9029
rwrist -28.5757
rhand -9.5385 22.3416
rfingers 7.12502
rthumb 16.428 -6.98274
lclavicle 4.81059e-014 -1.11319e-014
lhumerus 19.04 16.5957 8.44529
lradius 50.6872
lwrist 12.3127
lhand -50.0151 14.2989
lfingers 7.12502
lthumb -22.6036 42.9955
rfemur -10.1915 13.0379 12.1599
rtibia 24.8611
rfoot -8.63307 26.9977
rtoes 45.5255
lfemur -17.7648 -12.5635 -5.65575
ltibia 18.9374
lfoot 5.53157 -23.7007
ltoes 11.9514
628
root 5.98352 17.8276 -1.33086 -177.229 -31.4243 179.566
lowerback 5.97523 0.899732 2.48724
upperback -5.67781 0.460855 -6.89127
thorax -9.3715 -0.41832 -8.93389
lowerneck 12.0092 13.1653 13.1203
upperneck -4.58259 16.947 -30.9746
head 0.705533 9.02465 -12.1398
rclavicle 5.80451e-014 -3.65764e-014
rhumerus 44.3548 27.7257 -21.5927
rradius 52.8086
rwrist -28.6818
rhand -9.88664 22.0907
rfingers 7.12502
rthumb 16.0928 -7.26104
lclavicle 5.80451e-014 -3.65764e-014
lhumerus 19.2188 17.1721 8.71302
lradius 50.4753
lwrist 11.6335
lhand -48.9174 12.0861
lfingers 7.12502
lthumb -21.5497 40.9072
rfemur -10.1101 11.5289 12.5244
rtibia 24.8149
rfoot -10.6834 26.6881
rtoes 44.298
lfemur -18.2314 -12.0372 -5.58964
ltibia 18.4747
lfoot 5.50658 -22.8723
ltoes 11.9691
629
root 6.09629 17.8123 -1.35869 -176.921 -32.4932 179.496
lowerback 5.66559 0.999934 2.26735
upperback -5.61791 0.567668 -6.9848
thorax -9.10283 -0.344467 -8.90655
lowerneck 11.8755 13.2061 12.9995
upperneck -4.53288 17.0309 -30.7281
head 0.723834 9.06205 -12.0071
rclavicle 2.16675e-014 3.49861e-014
rhumerus 44.6316 27.2746 -21.3678
rradius 52.5748
rwrist -28.5844
rhand -10.1028 21.6421
rfingers 7.12502
rthumb 15.8847 -7.72642
lclavicle 2.16675e-014 3.49861e-014
lhumerus 19.2221 17.2348 8.59599
lradius 50.5204
lwrist 11.8174
lhand -48.621 10.4416
lfingers 7.12502
lthumb -21.265 39.295
rfemur -10.254 10.4381 12.9764
rtibia 25.0377
rfoot -12.9187 25.7645
rtoes 43.3098
lfemur -18.625 -11.4395 -5.5107
ltibia 17.9244
lfoot 4.16562 -21.6362
ltoes 9.00035
630
root 6.2123 17.7948 -1.38539 -176.675 -33.5084 179.569
lowerback 5.69337 1.10032 2.20582
upperback -5.8536 0.663919 -7.05616
thorax -9.36477 -0.319683 -8.97723
lowerneck 12.1947 13.0706 13.3385
upperneck -4.45415 16.932 -30.92
head 0.719589 9.03784 -12.1723
rclavicle 1.08139e-013 2.70347e-014
rhumerus 44.7464 27.2544 -21.2695
rradius 52.3744
rwrist -28.4631
rhand -10.2607 21.3312
rfingers 7.12502
rthumb 15.7326 -8.04932
lclavicle 1.08139e-013 2.70347e-014
lhumerus 18.981 16.7665 8.27479
lradius 50.8037
lwrist 12.1767
lhand -48.8065 10.6718
lfingers 7.12502
lthumb -21.4432 39.5051
rfemur -10.6393 9.76959 13.5454
rtibia 25.5015
rfoot -14.3699 24.7871
rtoes 43.5815
lfemur -18.8787 -10.4608 -5.44671
ltibia 17.3475
lfoot 0.846213 -20.0832
ltoes -3.9162
631
root 6.32716 17.7815 -1.40739 -176.589 -34.37 179.866
lowerback 5.84137 1.22356 2.34801
upperback -6.19644 0.815688 -7.05634
thorax -9.80803 -0.288258 -9.10869
lowerneck 12.5849 13.0495 13.4233
upperneck -4.26454 16.9795 -30.8448
head 0.714432 9.07959 -12.1872
rclavicle -1.07344e-014 -7.31528e-014
rhumerus 44.7917 27.3781 -21.2167
rradius 52.2226
rwrist -28.4366
rhand -10.2644 21.5774
rfingers 7.12502
rthumb 15.729 -7.80337
lclavicle -1.07344e-014 -7.31528e-014
lhumerus 18.6688 16.2266 8.07991
lradius 51.092
lwrist 12.2879
lhand -48.9125 11.3364
lfingers 7.12502
lthumb -21.545 40.158
rfemur -11.2491 9.56994 14.2782
rtibia 26.1758
rfoot -15.3322 23.756
rtoes 43.383
lfemur -19.0327 -10.1815 -5.01919
ltibia 16.8969
lfoot -1.98397 -16.6109
ltoes -11.1214
632
root 6.44036 17.772 -1.42575 -176.458 -35.0992 180.252
lowerback 5.72771 1.37885 2.48732
upperback -6.41168 1.03294 -7.02106
thorax -9.94032 -0.203184 -9.18712
lowerneck 12.638 13.2154 13.1838
upperneck -4.10263 17.2354 -30.4674
head 0.746455 9.20197 -11.9848
rclavicle 4.45278e-014 -3.65764e-014
rhumerus 44.8975 27.1234 -21.4137
rradius 51.8928
rwrist -28.2801
rhand -10.2089 22.1278
rfingers 7.12502
rthumb 15.7825 -7.24879
lclavicle 4.45278e-014 -3.65764e-014
lhumerus 18.3595 16.092 7.96768
lradius 51.3673
lwrist 12.1982
lhand -48.8041 11.6846
lfingers 7.12502
lthumb -21.4408 40.5182
rfemur -12.1582 9.41226 15.032
rtibia 27.0239
rfoot -16.1959 22.5909
rtoes 42.2494
lfemur -19.2941 -10.6385 -4.34327
ltibia 16.7142
lfoot -4.71525 -11.8409
ltoes -14.2796
633
root 6.54944 17.7518 -1.43911 -176.405 -35.8003 180.635
lowerback 5.66962 1.54935 2.66062
upperback -6.48339 1.28913 -7.00405
thorax -9.93675 -0.0885475 -9.30534
lowerneck 12.6904 13.3308 13.2133
upperneck -4.28807 17.3887 -30.5206
head 0.731133 9.30309 -12.0027
rclavicle 3.91606e-014 7.4743e-014
rhumerus 45.0081 26.57 -21.8307
rradius 51.4691
rwrist -27.8156
rhand -10.2069 22.1981
rfingers 7.12502
rthumb 15.7844 -7.17833
lclavicle 3.91606e-014 7.4743e-014
lhumerus 18.1502 16.2141 7.87888
lradius 51.5757
lwrist 11.9727
lhand -48.9522 12.2576
lfingers 7.12502
lthumb -21.5831 41.0749
rfemur -13.0759 9.12689 15.735
rtibia 27.9843
rfoot -16.8415 21.6668
rtoes 41.4441
lfemur -19.5033 -10.7605 -3.83232
ltibia 16.8033
lfoot -7.04905 -7.44433
ltoes -18.239
634
root 6.65214 17.7192 -1.45033 -176.525 -36.5204 181.002
lowerback 5.87612 1.70553 2.89951
upperback -6.54745 1.52729 -7.03721
thorax -10.0845 0.00231595 -9.53265
lowerneck 12.878 13.4259 13.3124
upperneck -4.6568 17.4984 -30.6098
head 0.64279 9.40597 -12.0676
rclavicle 3.77691e-015 -4.77083e-014
rhumerus 44.9667 26.083 -22.3309
rradius 51.3466
rwrist -27.6731
rhand -9.96617 21.503
rfingers 7.12502
rthumb 16.0162 -7.85496
lclavicle 3.77691e-015 -4.77083e-014
lhumerus 17.9932 16.2289 7.77912
lradius 51.8206
lwrist 11.6078
lhand -49.26 13.0262
lfingers 7.12502
lthumb -21.8787 41.8093
rfemur -13.811 8.8811 16.3981
rtibia 28.9886
rfoot -17.1589 21.2503
rtoes 41.6915
lfemur -19.5816 -10.5337 -3.46888
ltibia 17.129
lfoot -8.43073 -4.23385
ltoes -18.4128
